<?xml version="1.0" standalone="no"?><!DOCTYPE svg PUBLIC "-//W3C//DTD SVG 1.1//EN" "http://www.w3.org/Graphics/SVG/1.1/DTD/svg11.dtd"><svg t="1505792356715" class="icon" style="" viewBox="0 0 1024 1024" version="1.1" xmlns="http://www.w3.org/2000/svg" p-id="1408" xmlns:xlink="http://www.w3.org/1999/xlink" width="200" height="200"><defs><style type="text/css"></style></defs><path d="M512 1024a512 512 0 1 1 512-512 512 512 0 0 1-512 512z m-0.789333-996.586667a483.818667 483.818667 0 1 0 483.797333 483.776A484.266667 484.266667 0 0 0 511.210667 27.413333z m308.437333 415.018667a20.288 20.288 0 0 1-24 21.056 22.912 22.912 0 0 1-24.917333-22.464 73.664 73.664 0 0 1 4.949333-24.085333 111.744 111.744 0 0 0-7.68-83.008 131.690667 131.690667 0 0 0-123.904-61.290667 119.168 119.168 0 0 1-22.634667 5.397333 25.088 25.088 0 0 1-6.762666-49.237333 1.024 1.024 0 0 1 0.597333-0.448 21.333333 21.333333 0 0 1 2.346667-1.024 214.336 214.336 0 0 1 85.845333-0.853333c66.282667 15.488 157.248 79.552 116.330667 215.936h-0.170667z m-180.970667-92.074667a17.216 17.216 0 0 1 0-34.453333s107.136-19.818667 94.314667 95.317333a7.36 7.36 0 0 1-0.213333 1.834667 17.194667 17.194667 0 0 1-34.133334-2.752s16.981333-76.949333-59.968-59.946667z m8.682667 32.533334c29.013333 29.013333 4.8 68.949333 4.8 68.949333s-12.032 13.333333 12.8 18.133333 102.933333 41.130667 59.968 132.586667-184.768 135.744-289.728 127.509333c-99.882667-7.850667-228.266667-41.002667-241.429333-161.792 0 0-7.04-54.698667 46.016-125.482666 0 0 76.266667-106.538667 165.098666-136.938667s99.285333 20.970667 99.285334 51.2c-4.714667 25.6-13.546667 40.746667 19.818666 30.4 0 0 87.402667-40.533333 123.370667-4.565333z m-204.437333 65.834666c-104.256 4.821333-188.522667 60.672-188.522667 130.304s84.266667 121.834667 188.522667 116.970667 188.757333-70.016 188.757333-139.584-84.458667-112.512-188.757333-107.690667z m-85.333334 203.306667a54.208 54.208 0 0 1-28.117333-46.933333 98.389333 98.389333 0 0 1 92.736-110.485334c105.002667-12.202667 123.733333 88.106667 91.733333 129.322667a121.6 121.6 0 0 1-156.437333 28.096z m36.330667-80.298667a37.546667 37.546667 0 0 0-33.621333 35.413334 28.608 28.608 0 0 0 35.349333 25.365333 37.845333 37.845333 0 0 0 35.285333-33.664 30.058667 30.058667 0 0 0-37.013333-27.114667z m69.034667-11.818666a12.672 12.672 0 0 0-19.349334-1.685334 15.402667 15.402667 0 0 0-4.416 19.968 12.117333 12.117333 0 0 0 18.304 1.685334 16.32 16.32 0 0 0 5.44-20.053334z" p-id="1409"></path></svg>