<?xml version="1.0" standalone="no"?><!DOCTYPE svg PUBLIC "-//W3C//DTD SVG 1.1//EN" "http://www.w3.org/Graphics/SVG/1.1/DTD/svg11.dtd"><svg t="1505697349007" class="icon" style="" viewBox="0 0 1024 1024" version="1.1" xmlns="http://www.w3.org/2000/svg" p-id="3385" xmlns:xlink="http://www.w3.org/1999/xlink" width="200" height="200"><defs><style type="text/css"></style></defs><path d="M793.1 764.567c-9.3 0-18.9-1.4-28.3-5.1-24.8-9.7-42.5-33-52.7-69.1-0.5-1.8 0.5-3.7 2.3-4.3 1.9-0.6 38.6-11.8 67.8 1.2-9.9-7.2-26.2-12.8-52.3-8.3-1.5 0.3-3-0.5-3.7-1.8-0.7-1.3-0.5-3 0.6-4.1 1-1 23.9-24.5 54.2-18.3 28.5 5.9 52.9 35.7 72.7 88.7 0.6 1.6 0 3.3-1.5 4.2-1.5 0.9-28.2 16.9-59.1 16.9zM719.8 691.767c9.7 32 25.7 52.5 47.5 61.1 32.4 12.8 68.9-4.5 78.7-9.7-18.6-48.8-41-76.2-66.5-81.5-16-3.3-29.9 3.2-38.6 8.9 24.4-1.6 39.5 6 48.1 13.3 11 9.2 14.2 19.9 14.3 20.3 0.5 1.6-0.3 3.3-1.7 4.1-1.5 0.8-3.3 0.4-4.3-0.9-21.8-27.1-65.2-18.6-77.5-15.6zM919.8 723.967c-6 0-12.2-0.7-18.4-2.3-24.8-6.6-44.5-26.9-58.3-60.5-0.7-1.8 0.1-3.8 1.8-4.5 1.8-0.8 34.8-15.2 64-6.7-10.3-5.5-26.2-8.5-49.8-1.6-1.4 0.4-3-0.1-3.9-1.4-0.9-1.2-0.8-2.9 0.1-4.1 0.8-1.1 20.2-26.1 50-23.5 28 2.5 54.7 28.4 79.6 77 0.8 1.5 0.4 3.3-1 4.4-1.3 1.1-30.3 23.2-64.1 23.2zM851 661.767c12.8 29.5 30.4 47.3 52.2 53.1 32.4 8.6 65.2-11.8 74.1-18-23.2-44.6-47.6-68.3-72.5-70.6-15.4-1.4-27.9 6.1-35.5 12.5 23-4 38.1 1.6 47.1 7.5 11.6 7.7 15.8 17.5 16 17.9 0.7 1.5 0.1 3.3-1.3 4.3-1.4 0.9-3.2 0.8-4.4-0.4-23.7-23.4-64.1-10.6-75.7-6.3zM134.1 724.567c-12.3 0-25.9-1.1-40.7-3.2-1.7-0.2-2.9-1.6-3-3.3-0.1-2.2-2.1-54.1 31.6-82.3 20.4-17.1 49.3-21.5 85.9-13.2 1.8 0.4 3 2.2 2.7 4.1-0.4 2-8.1 39.5-33.5 58.9 11.1-5.2 23.8-16.8 32.3-41.9 0.5-1.4 1.8-2.4 3.3-2.4 1.5 0 2.8 1 3.3 2.4 0.4 1.3 10.1 32.7-9.9 56.3-13.8 16.5-38 24.6-72 24.6zM97.4 714.867c51.8 7 86.6 0.6 103.4-19.3 10.6-12.5 11.6-27.8 10.7-38.1-10.3 22.2-24.2 31.7-34.7 35.8-13.4 5.2-24.2 2.9-24.7 2.8-1.6-0.4-2.8-1.8-2.8-3.5s1.2-3.1 2.9-3.4c34.2-6.1 47.5-48.3 50.7-60.6-32.7-6.8-58.4-2.6-76.4 12.5-26.8 22.5-29 62.7-29.1 73.8zM289.9 815.167c-0.6 0-1.2-0.2-1.8-0.5-1.8-1.1-44.5-27.4-49-69.6-2.7-25.6 9.3-51.1 35.7-76 1.4-1.3 3.5-1.3 4.9 0.1 1.4 1.4 26.6 27.1 29.1 57.4 1.4-11.6-1.4-27.5-16.3-47.1-0.9-1.2-1-2.9-0.1-4.1 0.9-1.2 2.4-1.8 3.9-1.4 1.3 0.4 31.6 9.5 39.8 38.3 7.7 27-7 61.3-43.5 101.8-0.8 0.7-1.7 1.1-2.7 1.1zM277 676.567c-22.9 22.5-33.3 45.3-31 67.7 3.5 33.3 34.3 56.7 43.3 62.8 33.4-37.6 46.8-68.9 40-93-4.2-14.9-15.7-23.9-24.3-28.7 12 20.1 12.2 36.2 9.8 46.7-3 13.5-10.7 21-11 21.3-1.2 1.2-3.1 1.3-4.4 0.3-1.4-1-1.9-2.7-1.2-4.3 13.3-30.3-13-63.5-21.2-72.8zM902.2 546.667c-1.6 0-3.1-1.2-3.4-2.8-0.2-0.9-4.3-22.2-1.8-48.1 2.3-24.3 9.8-44.4 21.9-59.1-2.3 1.7-4.7 3.6-7.1 5.9-17.6 16.9-25.9 43.9-23.9 78.2 0.1 1.5-0.8 2.9-2.2 3.5-1.4 0.6-3 0.1-4-1-1.3-1.5-31-37.7-17.3-79.7 12.9-39.6 59.6-69.7 138.7-89.6 1.6-0.4 3.3 0.4 4 1.9 0.3 0.7 8.2 17.9 12.6 42 4.1 22.5 5.7 55.4-9.8 84.6-17.8 33.7-53.9 55.3-107.2 64.2h-0.5zM938.7 420.067c1.4 0 2.7 0.9 3.3 2.2 0.6 1.6 0 3.3-1.4 4.2-44.8 28.4-37.8 96.6-35.4 112.6 49.1-8.8 82.3-29 98.7-59.9 24.7-46.7 3.5-104.8-1.8-117.8-40.4 10.4-72.3 23.6-94.6 39.4-18.7 13.2-30.9 28.3-36.3 44.8-8.5 26.2 2 50.6 9.5 63.5 0.4-38.6 14.4-60.3 26.6-71.9 14.8-14 30.2-16.8 30.8-17 0.2 0 0.4-0.1 0.6-0.1zM262.7 477.567c-8.6 0-17.6-1.2-26.8-4-50-15.3-88.9-73.5-115.6-172.8-0.4-1.6 0.3-3.3 1.9-4.1 0.9-0.4 22.3-10.7 52.6-16.7 28.2-5.6 69.5-8.3 106.6 10.4 42.8 21.6 70.7 66.5 83 133.5 0.3 1.9-0.9 3.7-2.7 4.1-1.1 0.2-27.9 5.8-60.5 3.3-33.5-2.6-60.7-13.1-79.9-30.6 2.9 4.6 6.6 9.6 11.5 14.5 21.9 22.1 56.6 32.1 100.2 28.8 1.5-0.1 2.9 0.8 3.5 2.1 0.6 1.4 0.2 3-0.9 4-1.8 1.5-32.5 27.5-72.9 27.5zM127.8 301.867c14 51.3 31.6 91.6 52.2 119.8 17.2 23.5 36.7 38.8 57.9 45.3 35.6 10.9 68.2-5.4 83.6-15.3-50.5 1.1-78.9-16.3-94.1-31.8-17.8-18.2-21.7-37.3-21.9-38.1-0.3-1.6 0.6-3.3 2.1-3.9 1.5-0.6 3.3-0.1 4.2 1.3 17.5 26.6 47.7 41.8 89.6 45.1 25.1 2 47.2-1.1 55.3-2.5-12.2-62.7-38.6-104.8-78.6-125-35.2-17.8-74.8-15.2-101.9-9.9-23.4 4.6-41.8 12.1-48.4 15zM834.6 393.467c-1.6 0-3.1-1.2-3.4-2.8-0.1-0.7-3.2-16.9-1.3-36.5 1.5-15.7 5.9-29.1 12.8-39.7-10 9.5-19.7 26.9-17.9 58.5 0.1 1.5-0.8 2.9-2.2 3.5-1.4 0.6-3 0.1-4-1-1-1.2-23.6-28.8-13.2-60.8 9.8-30.1 45.2-53 105.1-68 1.6-0.4 3.3 0.4 4 1.9 1 2.2 24.5 53.8 2.1 96.1-13.5 25.6-40.9 42.1-81.3 48.8h-0.7zM862.1 296.467c1.4 0 2.7 0.9 3.3 2.2 0.6 1.6 0 3.3-1.4 4.2-32.5 20.6-28.2 69.7-26.4 83 36.2-6.7 60.7-21.6 72.8-44.5 18-34.1 3.2-76.4-1.1-87.3-55.6 14.3-88.3 35.4-97.2 62.6-5.8 17.7 0.2 34.3 5.6 44.4 1-27.4 11.2-43 20.3-51.6 11.3-10.7 23.1-12.9 23.6-13h0.5zM296.9 259.067c-0.7 0-1.4-0.2-2-0.7-0.6-0.4-13.9-10.1-25.9-25.7-9.7-12.5-15.6-25.3-17.8-37.8-0.8 13.8 4 33.2 26.9 55 1.1 1 1.4 2.7 0.8 4-0.6 1.4-2.1 2.2-3.6 2-1.5-0.2-36.9-4.9-51.2-35.4-13.4-28.7-3.3-69.6 30.2-121.5 0.9-1.4 2.7-2 4.3-1.3 2.2 0.9 54.6 22.5 67.2 68.7 7.6 28-1.1 58.7-26 91.2-0.8 1-1.8 1.5-2.9 1.5zM255.5 167.567c0.5 0 1 0.1 1.5 0.3 1.5 0.7 2.3 2.4 1.9 4-9.6 37.3 27 70.2 37.4 78.6 21.9-29.6 29.5-57.3 22.7-82.3-10.2-37.2-49.8-58-60.5-62.9-30.8 48.5-40.3 86.3-28.2 112.2 7.9 16.9 23.6 24.9 34.4 28.6-18-20.7-21.2-39.1-20.5-51.5 0.9-15.6 8.1-25.2 8.4-25.6 0.7-0.9 1.8-1.4 2.9-1.4zM100.6 555.367c-7.8 0-16.2-1.5-24.7-5.5-28.5-13.7-46.6-51.8-53.5-113.2-0.2-1.7 0.8-3.2 2.4-3.7 2.3-0.7 56.5-17.2 95.6 10.6 23.6 16.8 36.3 46.1 37.6 87.1 0.1 1.9-1.4 3.5-3.3 3.6-0.7 0-17.2 1-36.3-3.5-15.4-3.6-28.1-9.6-37.7-17.9 8.1 11.2 24.1 23.1 55.7 25.5 1.5 0.1 2.8 1.2 3.1 2.6s-0.2 3-1.5 3.8c-1 0.6-17.1 10.6-37.4 10.6zM29.7 438.867c6.9 57.1 23.5 92.3 49.3 104.6 16.8 8.1 34 4.3 44.7 0.3-27-4.6-41.2-16.8-48.5-26.9-9.1-12.6-9.7-24.6-9.8-25.1-0.1-1.7 1.1-3.2 2.7-3.5 1.6-0.4 3.3 0.4 4 1.9 16.2 35 65.3 37.2 78.8 37.1-1.8-36.8-13.4-63-34.5-78-31.4-22.3-75.3-13.3-86.7-10.4zM451.5 360.767c-7.6 0-15.8-1.4-24.1-5.3-28.7-13.4-47.1-51.3-54.8-112.5-0.2-1.7 0.8-3.2 2.4-3.8 2.3-0.7 56.4-17.8 95.7 9.6 23.8 16.6 36.8 45.7 38.5 86.6 0.1 1.9-1.4 3.5-3.2 3.6-0.7 0-17.1 1.2-36.4-3.1-15.4-3.4-28.2-9.3-37.8-17.5 8.2 11.1 24.4 22.8 55.9 24.9 1.5 0.1 2.8 1.1 3.2 2.6s-0.2 3-1.5 3.8c-0.9 0.8-17.3 11.1-37.9 11.1zM380 245.167c7.5 56.9 24.4 91.9 50.3 104.1 16.8 7.9 34.1 4 44.7-0.1-27-4.5-41.3-16.5-48.7-26.5-9.3-12.5-10-24.5-10-25-0.1-1.7 1-3.2 2.6-3.6 1.6-0.4 3.3 0.4 4 1.9 16.5 34.8 65.7 36.5 79.2 36.3-2.2-36.8-14.1-62.9-35.3-77.7-31.7-22-75.4-12.5-86.8-9.4zM755.9 338.667c-1.2 0-2.3-0.6-3-1.7-0.9-1.5-16.7-28-13.9-54.7-2.9 9.9-2.9 23.7 5.2 42.5 0.6 1.4 0.2 3-0.9 4s-2.8 1.2-4.1 0.4c-1.1-0.6-26.3-15.4-27.3-43-1-25.8 19.6-53.3 61.1-81.5 1.4-0.9 3.3-0.8 4.4 0.4 1.4 1.4 33.8 34.2 28.6 72.9-3.1 23.5-19.4 43.7-48.4 60.2-0.5 0.3-1.1 0.5-1.7 0.5zM751.6 255.667c1 0 1.9 0.4 2.6 1.2 1.1 1.3 1.2 3.1 0.2 4.4-18.3 23.9-2.5 58.7 2.9 69 25.1-15 39.2-32.9 41.9-53.3 4-30.1-17.9-57.3-24.7-64.9-37.7 26.2-56.4 51-55.5 73.8 0.5 13.5 8.1 23.7 14.6 29.9-5.9-20-2.6-34.2 1.7-42.9 5.7-11.5 14.2-16.5 14.6-16.7 0.5-0.4 1.1-0.5 1.7-0.5zM445.4 211.067c-7.2 0-15.2-1.5-22.9-5.8-22.6-12.5-35.5-44.3-38.3-94.4-0.1-1.7 1-3.2 2.6-3.6 1.9-0.5 46.8-11.3 77.2 13.2 18.5 14.8 27.4 39.2 26.5 72.6 0 1.9-1.6 3.4-3.5 3.4h-0.1c-2.3 0-32.7-0.3-53.9-16.3 6.9 7.5 18.8 14.7 39 17.4 1.5 0.2 2.7 1.3 3 2.8s-0.4 3-1.7 3.7c-0.6 0.4-12.6 7-27.9 7zM391.4 113.467c2.9 45.8 14.5 74.6 34.5 85.6 11.9 6.5 24.5 5.3 33.1 3-20.2-5.3-30.6-15.4-35.9-23.7-6.9-10.8-6.8-20.7-6.8-21.1 0-1.7 1.2-3.1 2.9-3.4 1.6-0.3 3.3 0.6 3.9 2.2 11 28 48.9 32.5 60.6 33.2 0.1-29.2-7.9-50.5-24-63.4-23.6-18.9-58.3-14.2-68.3-12.4zM67.1 410.467c-7.2 0-15.2-1.5-22.9-5.8-22.6-12.5-35.5-44.3-38.3-94.4-0.1-1.7 1-3.2 2.6-3.6 1.9-0.5 46.8-11.3 77.2 13.2 18.5 14.8 27.4 39.2 26.5 72.6 0 1.9-1.6 3.4-3.5 3.4-1.7 0-32.6-0.1-54-16.3 6.9 7.6 18.8 14.7 39 17.4 1.5 0.2 2.7 1.3 3 2.8 0.3 1.5-0.4 3-1.7 3.7-0.6 0.5-12.7 7-27.9 7zM13.1 312.967c2.9 45.8 14.6 74.6 34.5 85.6 11.8 6.5 24.4 5.3 33.1 3-20.2-5.2-30.6-15.4-35.9-23.7-6.9-10.8-6.8-20.7-6.8-21.1 0-1.7 1.2-3.1 2.9-3.4 1.6-0.3 3.3 0.6 3.9 2.2 11 28 48.9 32.5 60.6 33.2 0.1-29.2-8-50.5-24-63.4-23.7-18.9-58.3-14.3-68.3-12.4zM636 302.667c-0.9 0-1.8-0.4-2.5-1.1-0.9-0.9-21.8-22.7-38.4-54.8-17.6-33.9-23.5-66.4-17.5-95.2-3.1 5.9-6.1 13.1-8.1 21.6-8 33.6 3 72.1 31.6 111.2 0.9 1.2 0.9 2.9 0 4.1-0.9 1.2-2.4 1.8-3.9 1.3-0.7-0.2-16.3-5.1-34-17.3-23.6-16.2-39.5-37.7-45.9-62.1-14.9-55.7 16.8-126.1 94.3-209.1 1.1-1.2 3-1.5 4.4-0.6 0.9 0.6 23 14.6 46.4 39.5 21.7 23.1 48.4 60.2 52.5 105.9 4.7 52.7-21.1 105-76.5 155.6-0.7 0.7-1.5 1-2.4 1zM587.9 127.667c0.7 0 1.4 0.2 2.1 0.7 1.4 1 1.8 2.8 1.1 4.3-18.4 40-4.7 82.4 10.1 110.8 13 25.1 29.1 44.2 35 50.8 52-48.3 76.1-97.9 71.7-147.5-6.8-75.9-79.1-128.8-93.3-138.5-40 43.3-67.6 83.4-82 119.3-12 30-14.9 57.3-8.6 81 10.8 40.8 46.6 62 64.6 70.3-31.3-47.2-31.6-84.3-25.9-107.7 6.6-27.3 22.2-42 22.9-42.6 0.6-0.6 1.5-0.9 2.3-0.9z" p-id="3386" fill="#515151"></path><path d="M608.1 408.767c-26.6 38.4-37 75.1-41 101.1-5.3 34.4-0.7 57.6-0.5 58.5 0.4 2.1 1.8 3.9 3.8 4.9 1 0.5 2 0.7 3.1 0.7s2.1-0.2 3.1-0.7c62.8-31 91.7-79.6 104.8-114.9 6.6-17.8 10.1-33.9 11.8-46.2 2.8 9.9 3.5 21 3.4 30.2-0.2 18.2-3.5 33.6-3.5 33.7-0.6 3 0.7 6 3.3 7.5 1.1 0.6 2.3 0.9 3.5 0.9 1.7 0 3.4-0.6 4.7-1.8 17.5-15.9 54.6-27.3 84.4-34.3-74.7 44.1-126.6 93.2-158.4 128.9-40.3 45.2-57.6 78.5-58.3 79.9-1.1 2.2-1 4.9 0.4 7 1.3 2 3.5 3.2 5.9 3.2h0.4c39.1-2.2 88.5-28.4 146.7-78 22-18.7 41.2-37.4 54.7-51.2-5.7 14.6-12.3 26.1-17.7 34.2-9.2 13.8-17 20.9-17.1 21-2.5 2.2-3.1 5.9-1.4 8.8 1.3 2.2 3.6 3.5 6 3.5 0.8 0 1.5-0.1 2.3-0.4 7.9-2.7 18.8-4.1 32.3-4.1 17.3 0 36.5 2.2 53.2 4.9-120.6 18-183 63.6-214.7 100.8-36.6 43-41 83.3-41.4 89.4-1.1 4.5-7.1 30.7-9.4 69.3-2.2 36.3-1.3 90.4 14.4 146.1h-142.5c36.5-95.7 27.8-161.2 20.1-219.1-1.5-11-2.8-21.4-3.9-31.8-2.7-26.6-21.6-52.8-56.1-77.7-26.7-19.3-63-38-107.9-55.7-35.1-13.8-70-24.9-97.6-32.8 44.1 3.2 83.7 11.2 84.2 11.3 0.5 0.1 0.9 0.1 1.4 0.1 2.1 0 4.1-0.9 5.5-2.6 1.6-2.1 2-4.9 0.9-7.2-6.2-13.9-11.2-25.8-15.2-36 27.8 34.4 59.8 54.9 84.8 66.7 36.9 17.5 66 20.3 67.2 20.4h0.6c1.9 0 3.7-0.8 5-2.1 1.5-1.5 2.2-3.6 1.9-5.7-5.2-41.9-31.5-79.2-76-107.8 42.2 14.6 72.7 32 73.2 32.3 1.1 0.6 2.3 0.9 3.5 0.9 1 0 2.1-0.2 3-0.7 2.1-1 3.5-2.9 3.9-5.2 1.4-9.1 4.7-20.8 8.4-32.4-1.4 35.8 0.7 65.3 6.5 88 6.4 25.1 15 33 16.6 34.3 1.2 1 2.8 1.5 4.3 1.5 0.4 0 0.7 0 1.1-0.1 1.9-0.3 3.6-1.4 4.7-3 36.6-53.4 48.8-102.6 36.2-146.1-7.4-25.7-24-49.5-47.8-68.7-3.1-2.5-6.2-4.8-9.1-6.9 22.7 3.5 42.3 12.5 55.8 20.4 18.9 11 30.5 22.1 30.6 22.2 1.3 1.3 3.1 2 4.9 2 0.4 0 0.9 0 1.3-0.1 2.2-0.4 4.1-1.9 5.1-4 13.4-29.8 32.6-47.5 46.3-57.1 0.1 0 0.2-0.1 0.3-0.2M688 388.367s2.9 120.6-114.6 178.6c0 0-18.3-90 59.5-178.6 0 0-50.4 13.8-77.8 74.8 0 0-47.5-46.1-110.5-46.1-2.9 0-5.7 0.1-8.6 0.3 0 0 152.7 65.7 42.7 225.9 0 0-32.4-25.5-16.4-167.4 0 0-21.7 52.9-26.3 82 0 0-68.9-39.8-145-50.4 0 0 125.2 35.1 137.4 132.8 0 0-114.8-10.5-174.6-126.8 0 0 3.3 24.4 30.8 85.5 0 0-62.3-12.8-118.8-12.8-7.9 0-15.6 0.2-23.1 0.8 0 0 300.1 66.7 311 174.4 6.9 68.2 28 139.8-19.5 257.2h162.2c-34.8-112.1-7.4-221.3-7.4-221.3s8-166 294.3-189.3c0 0-54.6-13.8-98.4-13.8-13.1 0-25.2 1.2-34.6 4.5 0 0 32.7-29.2 45.5-86.9 0 0-126.5 143.6-217.1 148.8 0 0 17.1-33.3 57.3-78.4 40.2-45.1 103.4-102 195.7-149 0 0-98.1 14-131.7 44.5 0 0 13.6-63.3-12-89.3z" p-id="3387" fill="#515151"></path><path d="M750.2 436.167c-20 0-36.2-16.2-36.2-36.2s16.2-36.2 36.2-36.2c20 0 36.2 16.2 36.2 36.2 0 19.9-16.3 36.2-36.2 36.2zM750.2 370.767c-16.1 0-29.2 13.1-29.2 29.2s13.1 29.2 29.2 29.2 29.2-13.1 29.2-29.2-13.1-29.2-29.2-29.2zM545.6 426.167c-20 0-36.2-16.2-36.2-36.2s16.2-36.2 36.2-36.2c20 0 36.2 16.2 36.2 36.2 0 20-16.3 36.2-36.2 36.2zM545.6 360.767c-16.1 0-29.2 13.1-29.2 29.2s13.1 29.2 29.2 29.2 29.2-13.1 29.2-29.2-13.1-29.2-29.2-29.2zM831.7 589.567c-20 0-36.2-16.2-36.2-36.2s16.2-36.2 36.2-36.2 36.2 16.2 36.2 36.2c0 20-16.3 36.2-36.2 36.2zM831.7 524.167c-16.1 0-29.2 13.1-29.2 29.2s13.1 29.2 29.2 29.2 29.2-13.1 29.2-29.2-13.1-29.2-29.2-29.2zM408.3 522.767c-20 0-36.2-16.2-36.2-36.2s16.2-36.2 36.2-36.2c20 0 36.2 16.2 36.2 36.2s-16.2 36.2-36.2 36.2zM408.3 457.367c-16.1 0-29.2 13.1-29.2 29.2s13.1 29.2 29.2 29.2 29.2-13.1 29.2-29.2-13.1-29.2-29.2-29.2zM209.5 576.167c-20 0-36.2-16.2-36.2-36.2s16.2-36.2 36.2-36.2c20 0 36.2 16.2 36.2 36.2s-16.2 36.2-36.2 36.2zM209.5 510.667c-16.1 0-29.2 13.1-29.2 29.2s13.1 29.2 29.2 29.2 29.2-13.1 29.2-29.2-13.1-29.2-29.2-29.2z" p-id="3388" fill="#515151"></path></svg>