<?xml version="1.0" standalone="no"?><!DOCTYPE svg PUBLIC "-//W3C//DTD SVG 1.1//EN" "http://www.w3.org/Graphics/SVG/1.1/DTD/svg11.dtd"><svg t="1505791698922" class="icon" style="" viewBox="0 0 1024 1024" version="1.1" xmlns="http://www.w3.org/2000/svg" p-id="3363" xmlns:xlink="http://www.w3.org/1999/xlink" width="200" height="200"><defs><style type="text/css"></style></defs><path d="M746.057143 311.344762H277.942857a33.401905 33.401905 0 0 0-34.133333 33.401905v334.506666a33.401905 33.401905 0 0 0 33.401905 33.401905H746.057143a33.401905 33.401905 0 0 0 34.133333-33.401905V344.746667a33.401905 33.401905 0 0 0-34.133333-33.401905zM707.047619 618.057143a16.822857 16.822857 0 0 1-24.380952 24.380952L577.584762 536.380952l-32.182857 31.939048a48.761905 48.761905 0 0 1-66.80381 3.413333l-1.706666-1.706666-4.388572-4.388572-27.794286-29.257143-105.569523 105.569524a16.822857 16.822857 0 0 1-24.380953-24.380952L421.302857 512l-105.813333-106.300952a16.822857 16.822857 0 0 1 24.380952-24.380953L369.859048 414.47619l109.470476 109.470477a48.761905 48.761905 0 0 0 66.803809-1.462857L627.078095 438.857143l58.026667-57.295238a16.822857 16.822857 0 0 1 24.380952 24.380952L601.478095 512z" p-id="3364"></path><path d="M512 0a512 512 0 1 0 512 512A512 512 0 0 0 512 0z m0 975.238095a463.238095 463.238095 0 1 1 463.238095-463.238095 463.238095 463.238095 0 0 1-463.238095 463.238095z" p-id="3365"></path></svg>